# xmcd CD database file
#
# Track frame offsets:
#	150
#	23567
#	49565
#	73725
#
# Disc length: 1272 seconds
#
# Revision: 4
# Processed by: cddbd v1.5.1PL2 Copyright (c) Steve Scherf et al.
# Submitted via: CDex 1.51
#
DISCID=2a04f604
DTITLE=Calyn - Moments
DYEAR=1999
DGENRE=JPop
TTITLE0=Moments
TTITLE1=Shades of Love
TTITLE2=Love and Soul
TTITLE3=Moments [Ken-Bo's Urba-Remix]
EXTD=YEAR: 1999
EXTT0=
EXTT1=
EXTT2=
EXTT3=
PLAYORDER=
